<?xml version="1.0" standalone="no"?>
<!DOCTYPE svg PUBLIC "-//W3C//DTD SVG 20010904//EN"
 "http://www.w3.org/TR/2001/REC-SVG-20010904/DTD/svg10.dtd">
<svg version="1.0" xmlns="http://www.w3.org/2000/svg"
 width="512.000000pt" height="512.000000pt" viewBox="0 0 512.000000 512.000000"
 preserveAspectRatio="xMidYMid meet">

<g transform="translate(0.000000,512.000000) scale(0.100000,-0.100000)"
fill="#000000" stroke="none">
<path d="M3677 4859 c-14 -13 -44 -55 -65 -94 -35 -64 -46 -74 -118 -118 -93
-56 -114 -78 -114 -121 0 -40 25 -68 90 -101 71 -36 113 -76 149 -145 40 -76
66 -100 106 -100 45 0 69 22 115 106 42 76 55 87 163 148 61 35 81 65 73 110
-7 39 -20 51 -101 95 -81 45 -91 55 -137 138 -45 83 -54 92 -100 100 -27 4
-40 0 -61 -18z m106 -219 c18 -25 56 -58 85 -75 28 -16 51 -32 51 -35 1 -3
-22 -18 -50 -35 -52 -31 -98 -80 -120 -128 -7 -15 -15 -27 -19 -27 -3 0 -16
17 -28 38 -24 43 -83 101 -129 128 -40 22 -41 27 -6 43 48 22 98 68 128 120
27 46 31 49 43 34 7 -10 27 -38 45 -63z"/>
<path d="M4349 4348 c-12 -13 -35 -48 -53 -78 -25 -44 -43 -61 -95 -90 -117
-66 -117 -136 0 -196 49 -24 68 -44 122 -129 59 -91 123 -85 177 16 32 61 65
92 136 127 40 20 64 55 64 93 0 27 -43 67 -107 101 -43 22 -58 39 -88 93 -20
36 -45 70 -55 75 -33 17 -79 12 -101 -12z m116 -213 c17 -16 39 -36 50 -43 15
-9 17 -14 7 -18 -26 -12 -83 -67 -98 -96 l-15 -29 -32 43 c-18 24 -47 52 -65
63 -17 11 -31 22 -31 25 0 3 18 17 40 33 22 15 50 44 61 64 l22 36 15 -24 c9
-13 29 -37 46 -54z"/>
<path d="M2517 4332 c-14 -15 -17 -40 -17 -118 0 -116 10 -137 60 -137 51 0
60 21 60 138 0 86 -3 104 -18 118 -24 22 -65 21 -85 -1z"/>
<path d="M2517 4012 c-14 -15 -17 -40 -17 -118 0 -116 10 -137 60 -137 51 0
60 21 60 138 0 86 -3 104 -18 118 -24 22 -65 21 -85 -1z"/>
<path d="M2517 3692 c-14 -15 -17 -40 -17 -118 0 -116 10 -137 60 -137 51 0
60 21 60 138 0 86 -3 104 -18 118 -24 22 -65 21 -85 -1z"/>
<path d="M678 3660 c-284 -33 -439 -134 -544 -355 -61 -126 -77 -209 -77 -390
-1 -208 24 -323 112 -510 36 -77 38 -87 44 -220 9 -171 29 -305 54 -348 36
-61 136 -111 285 -142 104 -22 235 -29 295 -17 50 11 53 10 110 -24 70 -42
155 -69 277 -89 118 -19 318 -20 380 -1 45 14 48 13 70 -9 42 -42 100 -63 212
-79 262 -36 525 -30 617 15 l47 23 47 -23 c92 -45 354 -51 615 -15 122 17 162
31 206 72 32 30 32 30 80 15 37 -11 83 -14 212 -10 219 7 365 43 472 118 23
17 32 18 79 8 99 -21 321 7 443 57 73 29 121 66 142 106 23 44 43 180 51 343
6 133 8 143 44 220 86 184 114 315 113 520 -1 170 -19 258 -78 380 -124 261
-316 359 -706 359 -186 0 -297 -12 -516 -55 -265 -51 -576 -145 -858 -258
-119 -48 -227 -81 -268 -81 -15 0 -18 9 -18 43 0 50 -22 77 -62 77 -36 0 -58
-29 -58 -78 0 -33 -4 -42 -17 -42 -42 1 -148 33 -283 86 -376 148 -738 247
-1053 289 -148 19 -371 26 -469 15z m467 -136 c157 -22 374 -69 554 -121 142
-40 248 -78 543 -192 59 -23 142 -46 185 -53 45 -7 83 -18 89 -27 15 -20 74
-18 89 2 7 10 23 17 36 17 55 1 168 32 301 86 385 153 704 242 1043 290 164
23 432 23 540 0 177 -39 274 -112 345 -261 57 -121 74 -198 74 -350 0 -134
-10 -203 -46 -313 l-20 -63 -22 48 c-30 64 -92 118 -157 137 -66 20 -109 20
-184 1 -85 -22 -151 -61 -223 -132 -36 -35 -66 -63 -67 -63 -2 0 -5 10 -9 23
-3 12 -18 43 -35 68 -23 37 -44 54 -97 80 -60 30 -76 33 -153 33 -155 -1 -281
-55 -396 -169 l-71 -70 -19 40 c-25 54 -109 136 -166 162 -132 62 -317 45
-466 -43 -66 -38 -139 -109 -182 -174 -32 -49 -40 -55 -71 -55 -31 0 -39 6
-71 55 -141 216 -438 315 -648 217 -57 -26 -141 -108 -166 -162 l-19 -40 -71
70 c-115 114 -241 168 -396 169 -77 0 -93 -3 -153 -33 -53 -26 -74 -43 -97
-80 -17 -25 -32 -56 -35 -68 -4 -13 -7 -23 -9 -23 -1 0 -31 28 -67 63 -72 71
-138 110 -223 132 -75 19 -118 19 -184 -1 -65 -19 -127 -73 -157 -137 l-22
-48 -20 63 c-36 110 -46 179 -46 313 0 152 17 229 74 350 82 173 203 248 443
275 93 11 312 3 452 -16z m-510 -938 c71 -32 149 -111 182 -183 26 -56 26 -58
27 -330 l1 -273 -33 -6 c-86 -16 -314 24 -397 69 -51 28 -62 61 -76 226 -19
217 4 425 52 478 55 59 142 66 244 19z m636 20 c133 -28 249 -114 305 -223 29
-58 29 -59 30 -248 1 -104 3 -248 4 -320 l3 -129 -34 -9 c-19 -5 -97 -7 -174
-5 -218 7 -391 57 -425 124 -23 45 -21 467 4 589 31 159 61 205 143 224 54 13
70 12 144 -3z m809 4 c94 -15 196 -68 259 -135 112 -118 153 -285 155 -625 1
-235 -4 -253 -71 -267 -65 -13 -390 -7 -506 11 -171 25 -177 33 -189 245 -6
101 -6 214 1 321 19 289 35 337 144 420 18 13 98 38 127 39 8 1 44 -4 80 -9z
m1089 -1 c102 -22 171 -98 196 -217 38 -180 38 -678 1 -735 -36 -54 -186 -80
-461 -81 -279 -1 -276 -3 -283 199 -8 236 30 495 89 605 61 114 191 207 319
229 77 12 83 12 139 0z m870 -16 c43 -21 73 -85 98 -208 22 -113 26 -542 6
-588 -18 -39 -112 -81 -243 -107 -84 -17 -132 -21 -242 -18 -75 2 -141 8 -145
13 -5 6 -6 152 -3 325 l5 315 29 58 c89 175 342 282 495 210z m634 13 c73 -31
101 -99 112 -278 8 -113 -8 -347 -28 -406 -8 -26 -23 -43 -51 -58 -80 -45
-313 -86 -397 -70 l-34 6 1 278 1 277 27 52 c48 96 121 161 219 194 63 22 107
24 150 5z"/>
<path d="M2517 3052 c-14 -15 -17 -40 -17 -118 0 -116 10 -137 60 -137 51 0
60 21 60 138 0 86 -3 104 -18 118 -24 22 -65 21 -85 -1z"/>
<path d="M2517 2732 c-14 -15 -17 -40 -17 -118 0 -116 10 -137 60 -137 51 0
60 21 60 138 0 86 -3 104 -18 118 -24 22 -65 21 -85 -1z"/>
<path d="M2517 1452 c-14 -15 -17 -40 -17 -118 0 -116 10 -137 60 -137 51 0
60 21 60 138 0 86 -3 104 -18 118 -24 22 -65 21 -85 -1z"/>
<path d="M2517 1132 c-14 -15 -17 -40 -17 -118 0 -116 10 -137 60 -137 51 0
60 21 60 138 0 86 -3 104 -18 118 -24 22 -65 21 -85 -1z"/>
<path d="M2517 812 c-14 -15 -17 -40 -17 -118 0 -116 10 -137 60 -137 51 0 60
21 60 138 0 86 -3 104 -18 118 -24 22 -65 21 -85 -1z"/>
</g>
</svg>
