<?xml version="1.0" standalone="no"?>
<!DOCTYPE svg PUBLIC "-//W3C//DTD SVG 20010904//EN"
 "http://www.w3.org/TR/2001/REC-SVG-20010904/DTD/svg10.dtd">
<svg version="1.0" xmlns="http://www.w3.org/2000/svg"
 width="32.000000pt" height="32.000000pt" viewBox="0 0 32.000000 32.000000"
 preserveAspectRatio="xMidYMid meet">

<g transform="translate(0.000000,32.000000) scale(0.100000,-0.100000)"
fill="#000000" stroke="none">
<path d="M95 310 c-3 -5 -15 -10 -26 -10 -10 0 -19 -4 -19 -9 0 -5 -10 -11
-22 -13 -23 -3 -23 -6 -23 -138 l0 -135 73 -3 c45 -2 72 1 72 8 0 6 -27 10
-65 10 l-65 0 0 120 c0 100 3 120 15 120 8 0 15 -4 15 -10 0 -6 26 -10 59 -10
33 0 63 5 66 10 14 23 35 10 35 -22 0 -23 3 -29 11 -21 17 17 6 57 -18 68 -13
5 -23 13 -23 17 0 5 -9 8 -19 8 -11 0 -23 5 -26 10 -3 6 -12 10 -20 10 -8 0
-17 -4 -20 -10z m35 -20 c0 -5 7 -10 15 -10 8 0 15 -4 15 -10 0 -5 -22 -10
-50 -10 -27 0 -50 5 -50 10 0 6 9 10 20 10 11 0 20 5 20 10 0 6 7 10 15 10 8
0 15 -4 15 -10z"/>
<path d="M74 211 c-5 -5 -18 -11 -29 -13 -19 -5 -19 -5 -2 -13 12 -5 24 -2 35
8 16 17 13 34 -4 18z"/>
<path d="M110 210 c0 -5 15 -10 34 -10 19 0 38 5 41 10 4 6 -10 10 -34 10 -23
0 -41 -4 -41 -10z"/>
<path d="M110 180 c0 -5 9 -10 20 -10 11 0 20 5 20 10 0 6 -9 10 -20 10 -11 0
-20 -4 -20 -10z"/>
<path d="M200 183 c-103 -38 -75 -183 35 -183 35 0 85 50 85 85 0 41 -26 82
-61 94 -35 12 -37 12 -59 4z m74 -34 c33 -26 36 -79 6 -109 -30 -30 -83 -27
-109 6 -28 35 -26 69 4 99 30 30 64 32 99 4z"/>
<path d="M193 126 c-26 -27 -30 -56 -8 -56 8 0 15 -7 15 -15 0 -9 9 -15 25
-15 16 0 25 6 25 15 0 8 7 15 15 15 9 0 15 9 15 25 0 16 -6 25 -15 25 -8 0
-15 7 -15 15 0 23 -32 18 -57 -9z m47 -10 c0 -8 6 -16 12 -18 9 -3 7 -10 -6
-24 -14 -13 -21 -15 -24 -6 -2 6 -10 12 -18 12 -18 0 -18 6 4 29 21 23 32 26
32 7z"/>
<path d="M65 140 c-3 -5 -12 -7 -20 -3 -11 4 -13 1 -9 -11 3 -9 12 -16 18 -16
14 0 36 20 36 32 0 11 -18 10 -25 -2z"/>
<path d="M65 70 c-3 -5 -13 -6 -23 -3 -15 6 -15 5 -3 -10 13 -16 15 -16 32 -1
11 10 19 19 19 21 0 7 -19 2 -25 -7z"/>
</g>
</svg>
